# xmcd
#
# Track frame offsets:
#	150
#	23115
#	57890
#	79885
#	107627
#	128766
#	148246
#	174550
#
# Disc length: 2622 seconds
#
# Revision: 0
# Processed by: cddbd v1.5.1PL0 Copyright (c) Steve Scherf et al.
# Submitted via: EasyCDDAExtractor 4.6.9.1
#
DISCID=690a3c08
DTITLE=Depeche Mode - Live London 20.11.1990 - CD2
DYEAR=1990
DGENRE=live
TTITLE0=Policy Of Truth
TTITLE1=Enjoy The Silence
TTITLE2=Strangelove
TTITLE3=Personal Jesus
TTITLE4=Black Celebration
TTITLE5=A Question Of Time
TTITLE6=Behind The Wheel
TTITLE7=Route 66
EXTD=
EXTT0=
EXTT1=
EXTT2=
EXTT3=
EXTT4=
EXTT5=
EXTT6=
EXTT7=
PLAYORDER=
